<?xml version="1.0" encoding="utf-8"?>
<!-- Generator: Adobe Illustrator 27.7.0, SVG Export Plug-In . SVG Version: 6.00 Build 0)  -->
<svg version="1.1" id="Layer_8" xmlns="http://www.w3.org/2000/svg" xmlns:xlink="http://www.w3.org/1999/xlink" x="0px" y="0px"
	 viewBox="0 0 6000 6000" style="enable-background:new 0 0 6000 6000;" xml:space="preserve">
<style type="text/css">
	.st0{fill:url(#SVGID_1_);}
	.st1{fill:url(#SVGID_00000150096604491708314150000011135781601600011709_);}
	.st2{fill:#85AFC0;}
	.st3{fill:#586A76;}
	.st4{enable-background:new    ;}
	.st5{fill:#C1C5C1;}
	.st6{fill:#A5AAA7;}
	.st7{fill:#8E9390;}
	.st8{fill:#D7DCD6;}
	.st9{fill:#E4E8E1;}
	.st10{fill:#C8CDC8;}
	.st11{clip-path:url(#SVGID_00000099620927815266733110000002445178323673555847_);enable-background:new    ;}
	.st12{fill:#929794;}
	.st13{clip-path:url(#SVGID_00000048492659957885666310000006221837495687721135_);enable-background:new    ;}
	.st14{fill:#EBEFE7;}
	.st15{fill:#E0E5DE;}
	.st16{fill:#C2C7C2;}
	.st17{fill:#C3C8C3;}
	.st18{fill:#A6AAA7;}
	.st19{fill:#DADFD8;}
	.st20{fill:#CACFC9;}
	.st21{fill:#EEF2EA;}
	.st22{clip-path:url(#SVGID_00000146497496150630396280000014824749972021672883_);enable-background:new    ;}
	.st23{fill:#D2D7D1;}
	.st24{fill:#CBD0CA;}
	.st25{fill:#C6CAC5;}
	.st26{fill:#C5CAC5;}
	.st27{clip-path:url(#SVGID_00000022545254004196611680000011052892411164803260_);enable-background:new    ;}
	.st28{fill:#CED3CD;}
	.st29{fill:#CACFCA;}
	.st30{fill:#C6CBC6;}
	.st31{fill:#BEC3BE;}
	.st32{fill:#BABFBA;}
	.st33{fill:#B6BBB6;}
	.st34{fill:#B2B7B3;}
	.st35{fill:#AEB2AF;}
	.st36{fill:#AAAEAB;}
	.st37{fill:#A2A6A3;}
	.st38{clip-path:url(#SVGID_00000041287001802673223930000014568192736004038804_);enable-background:new    ;}
	.st39{fill:#9EA29F;}
	.st40{fill:#9A9E9B;}
	.st41{fill:#969B98;}
	.st42{clip-path:url(#SVGID_00000103255651845027512550000017669932451720223104_);enable-background:new    ;}
	.st43{clip-path:url(#SVGID_00000026124978880298422680000001074084674026147471_);enable-background:new    ;}
	.st44{fill:#DEE3DC;}
	.st45{clip-path:url(#SVGID_00000117661114365840505360000006300160050329925012_);enable-background:new    ;}
	.st46{fill:#A5AAA6;}
	.st47{clip-path:url(#SVGID_00000054264975247675768840000005254547115650478992_);enable-background:new    ;}
	.st48{fill:#F6FAF2;}
	.st49{fill:#EFF3EC;}
	.st50{fill:#E7EBE4;}
	.st51{clip-path:url(#SVGID_00000022531068270194072810000012483209148502774420_);enable-background:new    ;}
	.st52{fill:#D6DBD5;}
	.st53{fill:#DADFD9;}
	.st54{fill:#E3E7E0;}
	.st55{fill:#CDD2CC;}
	.st56{clip-path:url(#SVGID_00000005948699940151469180000004323676718336377784_);enable-background:new    ;}
	.st57{clip-path:url(#SVGID_00000165211374918293385830000010172013957016401595_);enable-background:new    ;}
	.st58{clip-path:url(#SVGID_00000047738537410363233940000000002587612149960586_);enable-background:new    ;}
	.st59{clip-path:url(#SVGID_00000138573084552853041220000017455142918420487838_);enable-background:new    ;}
	.st60{clip-path:url(#SVGID_00000098943763616997681620000000872862735502177682_);enable-background:new    ;}
	.st61{clip-path:url(#SVGID_00000062884608857714462080000014168371089322623663_);enable-background:new    ;}
	.st62{clip-path:url(#SVGID_00000119836323681881866290000013057057884620152719_);enable-background:new    ;}
	.st63{clip-path:url(#SVGID_00000116204685605129106290000017794335318040148106_);enable-background:new    ;}
	.st64{clip-path:url(#SVGID_00000145042375226368429880000006470554969557663636_);enable-background:new    ;}
	.st65{clip-path:url(#SVGID_00000176742882383412464860000017710056318458267070_);enable-background:new    ;}
	.st66{clip-path:url(#SVGID_00000036248627155986379610000016439198406689631656_);enable-background:new    ;}
	.st67{clip-path:url(#SVGID_00000098912802199006113220000009600157304464376204_);enable-background:new    ;}
</style>
<g>
	<linearGradient id="SVGID_1_" gradientUnits="userSpaceOnUse" x1="4294.3945" y1="458.0653" x2="1301.52" y2="6364.0044">
		<stop  offset="4.469291e-03" style="stop-color:#96A6AC"/>
		<stop  offset="0.5814" style="stop-color:#7D8D96"/>
		<stop  offset="1" style="stop-color:#71828C"/>
	</linearGradient>
	<path class="st0" d="M3076.7,5742.9c-640,0-1268.6-276.6-1770.1-778.8c-540.5-541.3-849.9-1266.2-848.8-1988.8
		c1-660.7,261.2-1335.9,714-1852.4c489.3-558.2,1138.9-865.7,1829-865.7l6.5,0c694.7,1.9,1344.7,317,1830.3,887
		c442.9,519.9,699.6,1198.6,704.4,1862c4.4,612.4-211.6,1251.6-592.6,1753.7c-410.9,541.6-975.4,884.1-1589.4,964.5
		C3266.5,5736.7,3171.2,5742.9,3076.7,5742.9z"/>
	
		<linearGradient id="SVGID_00000041268303578722143390000003012040697372733588_" gradientUnits="userSpaceOnUse" x1="4826.1128" y1="1915.2406" x2="1241.4336" y2="4072.4639">
		<stop  offset="0" style="stop-color:#142C42"/>
		<stop  offset="0.1533" style="stop-color:#142D43"/>
		<stop  offset="0.2085" style="stop-color:#162F46"/>
		<stop  offset="0.2478" style="stop-color:#19344D"/>
		<stop  offset="0.2794" style="stop-color:#1D3B56"/>
		<stop  offset="0.3034" style="stop-color:#214360"/>
		<stop  offset="0.619" style="stop-color:#142C42"/>
	</linearGradient>
	<path style="fill:url(#SVGID_00000041268303578722143390000003012040697372733588_);" d="M5235.4,3008.4
		c8,1108.5-783.5,2263.7-1915.1,2411.9C2003.9,5592.7,762.6,4332.3,764.6,2975.7c1.8-1187.9,956.7-2415.5,2241.9-2411.9
		C4303.6,567.5,5226.8,1823.3,5235.4,3008.4z"/>
	<path class="st2" d="M2340.7,1878.7c0,0-319.9,0-319.9,0c0-49.8,0-99.6,0-149.4c0-90,0-180,0-270.1c0-32.3,0-64.5,0-96.8
		c0-4.8-0.2-9.7,0-14.6c0.6-12.4,2.8-14.7,15.1-7.7c34,19.3,68.7,36.8,105.1,51.3c56.5,22.5,115.7,38.4,175.9,47.2
		c7.7,1.1,15.8,2.3,21.6,7.4c3.7,3.3,2.3,77.1,2.3,82.1c0,31.9,0,63.8,0,95.7c0,58.2,0,116.5,0,174.7
		C2340.7,1825.3,2340.7,1852,2340.7,1878.7z"/>
	<path class="st2" d="M2521.5,1898.8c-0.7-325.7-1.3-651.3-2-977c52.5,5.9,92.4-0.7,119.9-8.3c52.4-14.5,91.5-41.5,149.8-32.6
		c12.6,1.9,22.7,5,29.3,7.3c-0.1,339.9-0.3,679.7-0.4,1019.6C2719.3,1904.8,2620.4,1901.8,2521.5,1898.8z"/>
	<path class="st2" d="M3014.5,848.9c94.7,26.8,148.7,52.7,181.1,72.6c9.5,5.8,37.8,23.7,79.5,37.4c25.3,8.3,47,12.3,61.8,14.4
		c-3.1,321.6-6.1,643.3-9.2,964.9l-315.5-9.2L3014.5,848.9z"/>
	<path class="st2" d="M3502.4,1346.4v598.2h303.7v-480.4c-33.6-8.4-69.1-18.8-106-31.4C3624.5,1406.9,3558.5,1376.6,3502.4,1346.4z"
		/>
	<path class="st3" d="M2323.3,5250.1c-43.5-9.2-97.6-24.7-156.7-51.3c-61-27.5-109.6-59.1-145.9-86.4c0.9-300.7,1.8-601.4,2.7-902.1
		h299.8V5250.1z"/>
	<path class="st3" d="M2817.6,5379.7c-24.7,0.9-51.9,0.4-81-2.7c-91.9-9.7-165.4-40.2-216.1-67.5c0.9-366.4,1.8-732.9,2.7-1099.3
		H2823C2821.2,4600,2819.4,4989.9,2817.6,5379.7z"/>
	<path class="st3" d="M3322.7,5377c-36,11.5-83.7,23-140.4,27c-65.8,4.6-121.5-2.5-162.1-10.8c0-394.3,0-788.7,0-1183H3320
		C3320.9,4599.1,3321.8,4988.1,3322.7,5377z"/>
	<path class="st3" d="M3814.3,5252.8c-34.2,21.4-79.4,45.4-135,64.8c-64.9,22.6-123.1,31.6-167.5,35.1
		c1.8-380.8,3.6-761.7,5.4-1142.5H3817C3816.1,4557.7,3815.2,4905.2,3814.3,5252.8z"/>
	<g>
		<g class="st4">
			<g>
				<rect x="2073.3" y="2070.5" class="st5" width="179.2" height="0"/>
			</g>
			<g>
				
					<rect x="1983.7" y="1980.8" transform="matrix(0.2772 -0.9608 0.9608 0.2772 -555.5784 3402.3594)" class="st5" width="0" height="179.2"/>
			</g>
			<g>
				
					<rect x="1158.6" y="1975.2" transform="matrix(0.3305 -0.9438 0.9438 0.3305 -1172.4724 2475.4346)" class="st5" width="0" height="177.8"/>
			</g>
			<g>
				<rect x="1247.5" y="2064.1" class="st5" width="177.7" height="0"/>
			</g>
			<g>
				<polygon class="st6" points="2110.9,4027.4 2110.9,4049.3 1969.6,4049.3 1991.9,4027.4 				"/>
			</g>
			<g>
				<polygon class="st6" points="2230.6,4027.4 2252.5,4049.3 2110.9,4049.3 2110.9,4027.4 				"/>
			</g>
			<g>
				<polygon class="st6" points="1756.5,4014.8 1774.4,4036.7 1653.3,4036.7 1653.3,4014.8 				"/>
			</g>
			<g>
				<polygon class="st6" points="1653.3,4014.8 1653.3,4036.7 1532.2,4036.7 1550.8,4014.8 				"/>
			</g>
			<g>
				<polygon class="st6" points="1209.7,4011.6 1209.7,4033.5 1069.7,4033.5 1091.6,4011.6 				"/>
			</g>
			<g>
				<polygon class="st6" points="1327.8,4011.6 1349.7,4033.5 1209.7,4033.5 1209.7,4011.6 				"/>
			</g>
			<g>
				<polygon class="st7" points="1991.9,4027.4 1969.6,4049.3 1980.4,3517.5 2002.3,3518 				"/>
			</g>
			<g>
				<polygon class="st8" points="1861.6,3506.8 1883,3511.2 1774.4,4036.7 1756.5,4014.8 				"/>
			</g>
			<g>
				<polygon class="st9" points="1327.8,3492.5 1349.7,3492.5 1349.7,4033.5 1327.8,4011.6 				"/>
			</g>
			<g>
				<polygon class="st7" points="1550.8,4014.8 1532.2,4036.7 1441,3494 1462.6,3490.4 				"/>
			</g>
			<g>
				<polygon class="st9" points="2230.6,3059.9 2252.5,3059.9 2252.5,4049.3 2230.6,4027.4 				"/>
			</g>
			<g>
				<polygon class="st7" points="1091.6,4011.6 1069.7,4033.5 1069.7,3048.8 1091.6,3048.8 				"/>
			</g>
			<g>
				<polygon class="st7" points="2002.3,3518 1980.4,3517.5 1991.5,2985.9 2018.3,2747.4 				"/>
			</g>
			<g>
				<polygon class="st8" points="2018.3,2747.4 1991.5,2985.9 1883,3511.2 1861.6,3506.8 				"/>
			</g>
			<g>
				<polygon class="st9" points="1327.8,2688.9 1349.7,2951.2 1349.7,3492.5 1327.8,3492.5 				"/>
			</g>
			<g>
				<polygon class="st7" points="1462.6,3490.4 1441,3494 1349.7,2951.2 1327.8,2688.9 				"/>
			</g>
			<g>
				<polygon class="st9" points="2230.6,2092.4 2252.5,2070.5 2252.5,3059.9 2230.6,3059.9 				"/>
			</g>
			<g>
				<polygon class="st10" points="2073.3,2092.4 2073.3,2070.5 2252.5,2070.5 2230.6,2092.4 				"/>
			</g>
			<g>
				<polygon class="st10" points="1912.1,2092.4 1894.1,2070.5 2073.3,2070.5 2073.3,2092.4 				"/>
			</g>
			<g class="st4">
				<defs>
					<path id="SVGID_00000041277428262390575000000000645290084238834076_" class="st4" d="M1675.1,3314.9l-1.2-108.7
						c36.7-189.3,73.3-378.6,110-567.9c36.7-189.3,73.3-378.6,110.2-567.9l18.1,21.9c-33.4,171.5-70.1,360.8-106.8,550.1
						C1768.7,2831.8,1732,3021.1,1675.1,3314.9z"/>
				</defs>
				<clipPath id="SVGID_00000002376256943616697170000002370982626768788896_">
					<use xlink:href="#SVGID_00000041277428262390575000000000645290084238834076_"  style="overflow:visible;"/>
				</clipPath>
				<g style="clip-path:url(#SVGID_00000002376256943616697170000002370982626768788896_);enable-background:new    ;">
					<path class="st12" d="M1675.1,3314.9l-1.2-108.7c36.7-189.3,73.3-378.6,110-567.9c36.7-189.3,73.3-378.6,110.2-567.9l18.1,21.9
						c-33.4,171.5-70.1,360.8-106.8,550.1C1768.7,2831.8,1732,3021.1,1675.1,3314.9"/>
				</g>
			</g>
			<g>
				<polygon class="st7" points="1091.6,3048.8 1069.7,3048.8 1069.7,2064.1 1091.6,2086.1 				"/>
			</g>
			<g>
				<polygon class="st10" points="1247.5,2086.1 1247.5,2064.1 1425.2,2064.1 1407.5,2086.1 				"/>
			</g>
			<g>
				<polygon class="st10" points="1091.6,2086.1 1069.7,2064.1 1247.5,2064.1 1247.5,2086.1 				"/>
			</g>
			<g class="st4">
				<defs>
					<path id="SVGID_00000103264276192429501520000008628078275777430405_" class="st4" d="M1407.5,2086.1l17.7-21.9
						c41.4,190.3,82.8,380.7,124.4,571c41.4,190.3,82.8,380.7,124.2,571l1.2,108.7c-64.1-294.4-105.5-484.8-146.9-675.1
						C1486.6,2449.6,1445.2,2259.1,1407.5,2086.1z"/>
				</defs>
				<clipPath id="SVGID_00000082331646414951196500000004884501239417310356_">
					<use xlink:href="#SVGID_00000103264276192429501520000008628078275777430405_"  style="overflow:visible;"/>
				</clipPath>
				<g style="clip-path:url(#SVGID_00000082331646414951196500000004884501239417310356_);enable-background:new    ;">
					<path class="st14" d="M1407.5,2086.1l17.7-21.9c41.4,190.3,82.8,380.7,124.4,571c41.4,190.3,82.8,380.7,124.2,571l1.2,108.7
						c-64.1-294.4-105.5-484.8-146.9-675.1C1486.6,2449.6,1445.2,2259.1,1407.5,2086.1"/>
				</g>
			</g>
			<g>
				<path class="st15" d="M1407.5,2086.1c37.7,173,79.1,363.5,120.7,553.8c41.4,190.3,82.8,380.7,146.9,675.1
					c56.9-293.9,93.6-483.2,130.3-672.4c36.7-189.3,73.4-378.6,106.8-550.1h161.2h157.3v967.5v967.5h-119.7h-119l10.4-509.4
					l16-770.5l-156.8,759.3l-105,508h-103.2h-102.5l-88.2-524.3l-134.8-801.5v803.6v519.1h-118.1h-118.1v-962.8v-962.8h155.9H1407.5
					z"/>
			</g>
		</g>
	</g>
	<g>
		<g class="st4">
			<g>
				
					<rect x="2793.8" y="3350.7" transform="matrix(1 -6.089179e-03 6.089179e-03 1 -20.3504 17.3494)" class="st16" width="90.5" height="0"/>
			</g>
			<g>
				
					<rect x="2703.1" y="3349.1" transform="matrix(0.9255 -0.3788 0.3788 0.9255 -1063.7833 1290.5878)" class="st16" width="90.7" height="0"/>
			</g>
			<g>
				
					<rect x="2779.9" y="2108.7" transform="matrix(1 -9.938199e-03 9.938199e-03 1 -20.8156 28.5245)" class="st17" width="159.6" height="0"/>
			</g>
			<g>
				
					<rect x="2700.1" y="2024.2" transform="matrix(0.2859 -0.9583 0.9583 0.2859 -88.0332 4090.0244)" class="st17" width="0" height="159.8"/>
			</g>
			<g>
				<polygon class="st6" points="3145.3,4026.6 3145.3,4048.5 3003.9,4048.5 3022.4,4026.6 				"/>
			</g>
			<g>
				<polygon class="st6" points="3260.3,4026.6 3286.5,4048.5 3145.3,4048.5 3145.3,4026.6 				"/>
			</g>
			<g>
				<polygon class="st18" points="2452.6,4015.7 2452.8,4037.6 2300.8,4039.2 2326.7,4017 				"/>
			</g>
			<g>
				<polygon class="st18" points="2586.1,4014.4 2604.9,4036.1 2452.8,4037.6 2452.6,4015.7 				"/>
			</g>
			<g>
				<polygon class="st7" points="3022.4,4026.6 3003.9,4048.5 2970.2,3855.1 2991.8,3851.3 				"/>
			</g>
			<g>
				<polygon class="st19" points="2612.4,3845.6 2634,3849 2604.9,4036.1 2586.1,4014.4 				"/>
			</g>
			<g>
				<polygon class="st7" points="2991.8,3851.3 2970.2,3855.1 2936.5,3661.6 2954.9,3639.7 				"/>
			</g>
			<g>
				<polygon class="st6" points="2954.9,3639.7 2936.5,3661.6 2799.9,3661.6 2799.9,3639.7 				"/>
			</g>
			<g>
				<polygon class="st19" points="2644.5,3639.7 2663.2,3661.6 2634,3849 2612.4,3845.6 				"/>
			</g>
			<g>
				<polygon class="st6" points="2799.9,3639.7 2799.9,3661.6 2663.2,3661.6 2644.5,3639.7 				"/>
			</g>
			<g>
				<polygon class="st20" points="2793.4,3371.8 2793.8,3349.9 2884.3,3351.5 2909.5,3373.8 				"/>
			</g>
			<g>
				<polygon class="st20" points="2677.3,3369.8 2703.1,3348.3 2793.8,3349.9 2793.4,3371.8 				"/>
			</g>
			<g>
				<polygon class="st21" points="3091.4,3083.6 3113,3079.8 3286.5,4048.5 3260.3,4026.6 				"/>
			</g>
			<g>
				<polygon class="st7" points="2326.7,4017 2300.8,4039.2 2460.5,3070.5 2482.2,3074.1 				"/>
			</g>
			<g>
				<polygon class="st7" points="2909.5,3373.8 2884.3,3351.5 2842.9,3055.1 2864.6,3052.1 				"/>
			</g>
			<g class="st4">
				<defs>
					<path id="SVGID_00000073695887826064693210000002014333958413119416_" class="st4" d="M2803.3,2613.9l-1.9,144.8
						c-16.4,98.4-32.7,196.6-49.3,294.8c-16.4,98.4-32.7,196.6-49.1,294.8l-25.8,21.5c20.5-123.3,36.9-221.4,53.3-319.9
						C2747.1,2951.8,2763.5,2853.6,2803.3,2613.9z"/>
				</defs>
				<clipPath id="SVGID_00000172423644390855705630000014580539594437357189_">
					<use xlink:href="#SVGID_00000073695887826064693210000002014333958413119416_"  style="overflow:visible;"/>
				</clipPath>
				<g style="clip-path:url(#SVGID_00000172423644390855705630000014580539594437357189_);enable-background:new    ;">
					<path class="st23" d="M2803.3,2613.9l-1.9,144.8c-16.4,98.4-32.7,196.6-49.3,294.8c-16.4,98.4-32.7,196.6-49.1,294.8
						l-25.8,21.5c20.5-123.3,36.9-221.4,53.3-319.9C2747.1,2951.8,2763.5,2853.6,2803.3,2613.9"/>
				</g>
			</g>
			<g>
				<polygon class="st7" points="2864.6,3052.1 2842.9,3055.1 2801.4,2758.8 2803.3,2613.9 				"/>
			</g>
			<g>
				<polygon class="st21" points="2921,2132.4 2939.5,2111.1 3113,3079.8 3091.4,3083.6 				"/>
			</g>
			<g>
				<polygon class="st24" points="2779.3,2128.2 2780,2106.3 2939.5,2111.1 2921,2132.4 				"/>
			</g>
			<g>
				<polygon class="st7" points="2482.2,3074.1 2460.5,3070.5 2620.2,2101.8 2638.8,2124.3 				"/>
			</g>
			<g>
				<polygon class="st24" points="2638.8,2124.3 2620.2,2101.8 2780,2106.3 2779.3,2128.2 				"/>
			</g>
			<g>
				<path class="st15" d="M3091.4,3083.6l168.9,942.9h-115h-123l-30.6-175.3l-36.9-211.6h-155.1h-155.4l-32.1,205.8l-26.3,168.8
					l-133.5,1.4l-125.9,1.3l155.5-943l156.6-949.8l140.6,4l141.7,4.2L3091.4,3083.6z M2793.4,3371.8l116.1,2l-45-321.7l-61.2-438.2
					c-39.9,239.6-56.2,337.8-72.8,436c-16.4,98.4-32.7,196.6-53.3,319.9L2793.4,3371.8"/>
			</g>
		</g>
	</g>
	<g>
		<g class="st4">
			<g>
				
					<rect x="3538.1" y="2154" transform="matrix(0.9998 -1.880428e-02 1.880428e-02 0.9998 -39.858 69.0513)" class="st25" width="227.5" height="0"/>
			</g>
			<g>
				
					<rect x="3424.7" y="2027.9" transform="matrix(0.3363 -0.9418 0.9418 0.3363 256.0924 4646.6548)" class="st26" width="0" height="227.5"/>
			</g>
			<g class="st4">
				<defs>
					<path id="SVGID_00000086690394427268996010000012205605214944849294_" class="st4" d="M4081.2,3723h22
						c-15.2,76.1-52.3,144.3-104.9,197.4c-45,45.4-101.1,79.5-165,98.2c-18.7,5.5-38.3,8.7-57.8,9.3c-33.5,1.2-71,2.2-128.4,3.7
						c-71.2,1.8-172.9,4.1-336,7.7l21.9-22.4c140.7-3.1,242.4-5.4,313.5-7.2c57.3-1.6,94.8-2.6,128.2-3.7
						c17.7-0.5,35.3-3.4,52.3-8.4c55.1-18.5,113.3-49.8,155.7-92.6C4032.4,3854.9,4067.4,3790.5,4081.2,3723z"/>
				</defs>
				<clipPath id="SVGID_00000168081447855203691890000009758712610847022978_">
					<use xlink:href="#SVGID_00000086690394427268996010000012205605214944849294_"  style="overflow:visible;"/>
				</clipPath>
				<g style="clip-path:url(#SVGID_00000168081447855203691890000009758712610847022978_);enable-background:new    ;">
					<path class="st23" d="M4081.2,3723h22c-0.2,1-0.4,2.1-0.6,3.1l-22-0.3C4080.8,3724.8,4081,3723.9,4081.2,3723"/>
					<path class="st28" d="M4080.6,3725.7l22,0.3c-1.8,8.5-3.8,17-6.1,25.3l-21.5-3C4077.1,3740.8,4079,3733.3,4080.6,3725.7"/>
					<path class="st29" d="M4075,3748.3l21.5,3c-2.6,9.2-5.4,18.2-8.6,27.1l-20.8-5.6C4069.9,3764.8,4072.6,3756.6,4075,3748.3"/>
					<path class="st30" d="M4066.9,3772.9l20.8,5.6c-3.6,10.1-7.7,20.1-12.1,29.8l-20.1-8.1
						C4059.8,3791.2,4063.5,3782.1,4066.9,3772.9"/>
					<path class="st16" d="M4055.6,3800.2l20.1,8.1c-5.3,11.6-11.1,22.8-17.4,33.8l-19-10.6
						C4045.2,3821.3,4050.7,3810.8,4055.6,3800.2"/>
					<path class="st31" d="M4039.2,3831.4l19,10.6c-8.5,14.6-17.9,28.6-28.1,41.9l-17.4-13.3
						C4022.4,3858.1,4031.3,3845,4039.2,3831.4"/>
					<path class="st32" d="M4012.8,3870.6l17.4,13.3c-9.8,12.8-20.5,24.9-31.8,36.4c-10.9,11-22.5,21.4-34.7,31l-14.3-17.3
						c11.9-9,23.1-18.7,33.4-29.1C3993.4,3894.1,4003.5,3882.6,4012.8,3870.6"/>
					<path class="st33" d="M3949.3,3934l14.3,17.3c-19,15-39.6,28.3-61.4,39.6l-12.3-19.8C3910.6,3960.5,3930.7,3948.1,3949.3,3934"
						/>
					<path class="st34" d="M3889.8,3971.1l12.3,19.8c-14.5,7.5-29.5,14.1-45.1,19.8l-9-20.8
						C3862,3984.4,3876.1,3978.2,3889.8,3971.1"/>
					<path class="st35" d="M3848,3989.9l9,20.8c-7.8,2.8-15.7,5.5-23.8,7.8c-2.1,0.6-4.2,1.2-6.3,1.8l-5.6-21.2
						c1.9-0.5,3.8-1,5.7-1.6C3834,3995.2,3841,3992.6,3848,3989.9"/>
					<path class="st36" d="M3821.4,3999.1l5.6,21.2c-8.1,2.1-16.4,3.8-24.7,5.1l-3.2-21.7C3806.5,4002.6,3814,4001,3821.4,3999.1"/>
					<path class="st18" d="M3799,4003.7l3.2,21.7c-8.1,1.2-16.2,2-24.3,2.3l-1-21.9C3784.4,4005.5,3791.7,4004.8,3799,4003.7"/>
					<path class="st37" d="M3777,4005.8l1,21.9c-0.8,0-1.7,0.1-2.5,0.1c-33.5,1.2-71,2.2-128.4,3.7c-71.2,1.8-172.9,4.1-336,7.7
						l21.9-22.4c140.7-3.1,242.4-5.4,313.5-7.2c57.3-1.6,94.8-2.6,128.2-3.7C3775.5,4005.9,3776.3,4005.8,3777,4005.8"/>
				</g>
			</g>
			<g class="st4">
				<defs>
					<path id="SVGID_00000152234305496059395660000012183088676654464908_" class="st4" d="M3571.6,3794.7l21.9-22.7
						c28.8-1,52.8-3.4,70.4-5.5c80.8-9.9,105.1-24.1,116.9-34.3c28.6-24.6,38.4-24.3,41.4-167.2l21.9,0.5
						c-1.9,153.1-14.2,153.1-49,183.3c-15.4,13.2-43.7,29.4-128.6,39.5C3648.5,3790.5,3623.8,3792.9,3571.6,3794.7z"/>
				</defs>
				<clipPath id="SVGID_00000102510398062581400740000015300096214190085795_">
					<use xlink:href="#SVGID_00000152234305496059395660000012183088676654464908_"  style="overflow:visible;"/>
				</clipPath>
				<g style="clip-path:url(#SVGID_00000102510398062581400740000015300096214190085795_);enable-background:new    ;">
					<path class="st30" d="M3571.6,3794.7l21.9-22.7c3.5-0.1,7-0.3,10.3-0.4l-14.3,22.4C3583.9,3794.3,3578,3794.5,3571.6,3794.7"/>
					<path class="st16" d="M3589.5,3794l14.3-22.4c12.8-0.6,24.5-1.5,34.9-2.4l0.4,21.9C3626.5,3792.1,3610.7,3793.2,3589.5,3794"/>
					<path class="st31" d="M3639.1,3791.1l-0.4-21.9c9.4-0.9,17.8-1.8,25.1-2.7c2.4-0.3,4.7-0.6,7-0.9l3,21.7
						c-2.4,0.3-4.9,0.6-7.3,0.9C3659.1,3789.2,3650.4,3790.2,3639.1,3791.1"/>
					<path class="st32" d="M3673.9,3787.4l-3-21.7c10-1.3,19.2-2.7,27.4-4.1l4.6,21.5C3694.1,3784.6,3684.5,3786,3673.9,3787.4"/>
					<path class="st33" d="M3702.9,3783l-4.6-21.5c7-1.2,13.3-2.4,19.2-3.7l5.9,21.2C3717.1,3780.4,3710.3,3781.8,3702.9,3783"/>
					<path class="st34" d="M3723.4,3779l-5.9-21.2c5.1-1.1,9.8-2.2,14.1-3.3l7,20.8C3733.9,3776.6,3728.9,3777.8,3723.4,3779"/>
					<path class="st35" d="M3738.6,3775.3l-7-20.8c3.9-1,7.5-2,10.8-3.1l8.1,20.4C3746.8,3773,3742.9,3774.2,3738.6,3775.3"/>
					<path class="st36" d="M3750.5,3771.9l-8.1-20.4c3.1-0.9,5.9-1.9,8.5-2.9l9,20C3757,3769.7,3753.8,3770.8,3750.5,3771.9"/>
					<path class="st18" d="M3759.9,3768.6l-9-20c2.5-0.9,4.8-1.8,7-2.7l9.9,19.6C3765.3,3766.5,3762.7,3767.6,3759.9,3768.6"/>
					<path class="st37" d="M3767.8,3765.5l-9.9-19.6c2.1-0.9,4.1-1.8,5.9-2.7l10.7,19.1C3772.5,3763.4,3770.2,3764.4,3767.8,3765.5"
						/>
					<path class="st39" d="M3774.6,3762.3l-10.7-19.1c1.9-0.9,3.6-1.8,5.2-2.7l11.6,18.6C3778.7,3760.1,3776.7,3761.2,3774.6,3762.3
						"/>
					<path class="st40" d="M3780.6,3759.1l-11.6-18.6c1.8-1,3.4-2,4.9-3l12.6,17.9C3784.7,3756.6,3782.7,3757.8,3780.6,3759.1"/>
					<path class="st41" d="M3786.5,3755.4l-12.6-17.9c1.9-1.3,3.6-2.6,5.1-3.8l13.8,17C3790.9,3752.3,3788.8,3753.8,3786.5,3755.4"
						/>
					<path class="st12" d="M3792.8,3750.7l-13.8-17c0.6-0.5,1.2-1,1.8-1.5c28.6-24.6,38.4-24.3,41.4-167.2l21.9,0.5
						c-1.9,153.1-14.2,153.1-49,183.3C3794.4,3749.4,3793.6,3750.1,3792.8,3750.7"/>
				</g>
			</g>
			<g>
				<polygon class="st9" points="3571.6,3101.3 3593.5,3101.3 3593.5,3772.1 3571.6,3794.7 				"/>
			</g>
			<g>
				<polygon class="st7" points="3333,4016.8 3311.1,4039.2 3311.1,3087.5 3333,3087.5 				"/>
			</g>
			<g class="st4">
				<defs>
					<path id="SVGID_00000101794547784792968950000011741384224629032334_" class="st4" d="M3844.1,3565.5l-21.9-0.5
						c2.8-143.1-1.4-429.4-1.4-1027.3h22C3842.7,3135.5,3846.9,3421.9,3844.1,3565.5z"/>
				</defs>
				<clipPath id="SVGID_00000086665131777081501020000010496286175316885429_">
					<use xlink:href="#SVGID_00000101794547784792968950000011741384224629032334_"  style="overflow:visible;"/>
				</clipPath>
				<g style="clip-path:url(#SVGID_00000086665131777081501020000010496286175316885429_);enable-background:new    ;">
					<path class="st12" d="M3844.1,3565.5l-21.9-0.5c2.8-143.1-1.4-429.4-1.4-1027.3h22C3842.7,3135.5,3846.9,3421.9,3844.1,3565.5"
						/>
				</g>
			</g>
			<g class="st4">
				<defs>
					<path id="SVGID_00000096770700925615412240000016115789718248938429_" class="st4" d="M4081.5,2501.4l21.7-3.4
						c0,204.1,0,408.3,0,612.4c0,204.3,0,408.5,0,612.6h-22c0.1-204.1,0.1-408.3,0.1-612.6C4081.3,2906.3,4081.3,2702,4081.5,2501.4
						z"/>
				</defs>
				<clipPath id="SVGID_00000074415685270866490670000018112662148457389464_">
					<use xlink:href="#SVGID_00000096770700925615412240000016115789718248938429_"  style="overflow:visible;"/>
				</clipPath>
				<g style="clip-path:url(#SVGID_00000074415685270866490670000018112662148457389464_);enable-background:new    ;">
					<path class="st44" d="M4081.5,2501.4l21.7-3.4c0,204.1,0,408.3,0,612.4c0,204.3,0,408.5,0,612.6h-22
						c0.1-204.1,0.1-408.3,0.1-612.6C4081.3,2906.3,4081.3,2702,4081.5,2501.4"/>
				</g>
			</g>
			<g class="st4">
				<defs>
					<path id="SVGID_00000174592832579308551130000018124674439631035793_" class="st4" d="M3842.8,2537.8h-22
						c-5.1-28.2-18.3-52.1-37.1-70.4c-18.7-18.5-43-31.4-70.4-37.1l4.5-21.6c37.3,5.4,59.5,21.5,81.3,43
						C3821,2473.1,3836.4,2501.1,3842.8,2537.8z"/>
				</defs>
				<clipPath id="SVGID_00000110442826867336084340000006056100276268306837_">
					<use xlink:href="#SVGID_00000174592832579308551130000018124674439631035793_"  style="overflow:visible;"/>
				</clipPath>
				<g style="clip-path:url(#SVGID_00000110442826867336084340000006056100276268306837_);enable-background:new    ;">
					<path class="st12" d="M3842.8,2537.8h-22c-5.1-28.2-18.3-52.1-37.1-70.4c-9.6-9.5-20.6-17.5-32.8-23.8l12.4-19.9
						c13.4,7.5,24.6,17.1,35.8,28.1C3821,2473.1,3836.4,2501.1,3842.8,2537.8"/>
					<path class="st41" d="M3763.4,2423.7l-12.4,19.9c-5.8-3-11.9-5.6-18.2-7.9l9.8-21.2C3750.1,2417,3757,2420.1,3763.4,2423.7"/>
					<path class="st40" d="M3742.6,2414.5l-9.8,21.2c-5.6-2-11.3-3.6-17.2-4.9l5.3-21.6C3728.7,2410.5,3735.9,2412.3,3742.6,2414.5"
						/>
					<path class="st39" d="M3720.8,2409.2l-5.3,21.6c-0.7-0.2-1.5-0.3-2.2-0.5l4.5-21.6C3718.9,2408.9,3719.8,2409,3720.8,2409.2"/>
				</g>
			</g>
			<g>
				<polygon class="st6" points="3653.4,2408.4 3653.4,2430.3 3593.5,2430.3 3571.6,2408.4 				"/>
			</g>
			<g>
				<polygon class="st9" points="3571.6,2408.4 3593.5,2430.3 3593.5,3101.3 3571.6,3101.3 				"/>
			</g>
			<g>
				<polygon class="st46" points="3717.9,2408.7 3713.4,2430.3 3653.4,2430.3 3653.4,2408.4 				"/>
			</g>
			<g class="st4">
				<defs>
					<path id="SVGID_00000155828036173205581620000016827914468090845319_" class="st4" d="M3972.7,2288l15.3-15.6
						c59.3,58.4,101,135.7,115.1,225.6l-21.7,3.4C4068.1,2416.2,4028.8,2343.1,3972.7,2288z"/>
				</defs>
				<clipPath id="SVGID_00000139975410145814242040000014337341747526460039_">
					<use xlink:href="#SVGID_00000155828036173205581620000016827914468090845319_"  style="overflow:visible;"/>
				</clipPath>
				<g style="clip-path:url(#SVGID_00000139975410145814242040000014337341747526460039_);enable-background:new    ;">
					<path class="st48" d="M3972.7,2288l15.3-15.6c40.9,40.2,73.3,89.3,94.2,145.4l-20.5,7.7C4042,2372.4,4011.3,2326,3972.7,2288"
						/>
					<path class="st49" d="M4061.7,2425.5l20.5-7.7c4.2,11.4,8,23.1,11.3,35l-21.2,5.8C4069.3,2447.3,4065.7,2436.3,4061.7,2425.5"
						/>
					<path class="st14" d="M4072.3,2458.6l21.2-5.8c2.9,10.4,5.3,21.1,7.4,31.9l-21.6,4.1C4077.4,2478.6,4075,2468.5,4072.3,2458.6"
						/>
					<path class="st50" d="M4079.3,2488.8l21.6-4.1c0.8,4.4,1.6,8.8,2.3,13.2l-21.7,3.4C4080.8,2497.2,4080.1,2493,4079.3,2488.8"/>
				</g>
			</g>
			<g class="st4">
				<defs>
					<path id="SVGID_00000122701704307461963930000004844281720163767951_" class="st4" d="M3764.2,2182.1l1.2-21.9
						c85.8,14.4,163.1,53.8,222.6,112.2l-15.3,15.6C3916.4,2232.8,3843.2,2195.4,3764.2,2182.1z"/>
				</defs>
				<clipPath id="SVGID_00000072282164008895024270000001876533807450229634_">
					<use xlink:href="#SVGID_00000122701704307461963930000004844281720163767951_"  style="overflow:visible;"/>
				</clipPath>
				<g style="clip-path:url(#SVGID_00000072282164008895024270000001876533807450229634_);enable-background:new    ;">
					<path class="st52" d="M3764.2,2182.1l1.2-21.9c1.4,0.2,2.8,0.5,4.1,0.7l-1.5,21.9C3766.8,2182.5,3765.5,2182.3,3764.2,2182.1"
						/>
					<path class="st53" d="M3768,2182.7l1.5-21.9c6.9,1.2,13.8,2.6,20.6,4.2l-3.1,21.6C3780.8,2185.2,3774.4,2183.9,3768,2182.7"/>
					<path class="st44" d="M3787.1,2186.6l3.1-21.6c7.3,1.7,14.5,3.5,21.7,5.6l-4.7,21.2C3800.5,2189.9,3793.8,2188.2,3787.1,2186.6
						"/>
					<path class="st54" d="M3807.2,2191.9l4.7-21.2c7.8,2.2,15.5,4.7,23.2,7.3l-6.3,20.8C3821.6,2196.2,3814.4,2193.9,3807.2,2191.9
						"/>
					<path class="st50" d="M3828.7,2198.7l6.3-20.8c8.5,2.9,16.8,6.1,25,9.6l-8,20.3C3844.4,2204.5,3836.6,2201.5,3828.7,2198.7"/>
					<path class="st14" d="M3852.1,2207.8l8-20.3c9.1,3.8,18.1,8,26.8,12.4l-9.6,19.6C3869,2215.3,3860.6,2211.4,3852.1,2207.8"/>
					<path class="st49" d="M3877.2,2219.5l9.6-19.6c10.3,5.2,20.4,10.9,30.2,16.9l-11.4,18.6
						C3896.4,2229.8,3886.9,2224.4,3877.2,2219.5"/>
					<path class="st48" d="M3905.6,2235.5l11.4-18.6c25.7,15.8,49.5,34.5,71,55.5l-15.3,15.6
						C3952.4,2268.1,3929.8,2250.5,3905.6,2235.5"/>
				</g>
			</g>
			<g>
				<polygon class="st55" points="3537.1,2169.6 3538.3,2147.7 3765.4,2160.2 3764.2,2182.1 				"/>
			</g>
			<g>
				<polygon class="st7" points="3333,3087.5 3311.1,3087.5 3311.1,2135.5 3333,2158.6 				"/>
			</g>
			<g>
				<path class="st15" d="M3972.7,2288c56.1,55.1,95.4,128.2,108.8,213.3c-0.2,200.6-0.2,404.9-0.2,609c0,204.3,0,408.5-0.1,612.6
					c-13.8,67.5-48.8,131.9-98.4,181.9c-42.4,42.8-100.5,74.1-155.7,92.6c-17,5-34.6,7.9-52.3,8.4c-33.5,1.2-70.9,2.2-128.2,3.7
					c-71.1,1.8-172.8,4.1-313.5,7.2v-929.4v-928.8l204.1,11l227.1,12.5C3843.2,2195.4,3916.4,2232.8,3972.7,2288z M3844.1,3565.5
					c2.8-143.6-1.4-430-1.3-1027.7c-6.4-36.7-21.8-64.6-43.7-86c-21.8-21.5-44-37.6-81.3-43l-64.4-0.3h-81.8v692.9v693.5
					c52.2-1.8,76.9-4.2,95-6.4c84.9-10.1,113.2-26.2,128.6-39.5C3829.9,3718.6,3842.2,3718.5,3844.1,3565.5"/>
			</g>
			<g>
				<polygon class="st55" points="3333,2158.6 3311.1,2135.5 3538.3,2147.7 3537.1,2169.6 				"/>
			</g>
		</g>
	</g>
	<g>
		<g class="st4">
			<g class="st4">
				<defs>
					<path id="SVGID_00000155136066674320821060000014309333955110438838_" class="st4" d="M4962.3,2672.4c-2.4-2.3-4.7-4.5-9.3-7.6
						c0,0,0-0.5,0-1.7C4953,2663.1,4962.3,2672.4,4962.3,2672.4z"/>
				</defs>
				<clipPath id="SVGID_00000003825689140319209830000011539661293018303882_">
					<use xlink:href="#SVGID_00000155136066674320821060000014309333955110438838_"  style="overflow:visible;"/>
				</clipPath>
				<g style="clip-path:url(#SVGID_00000003825689140319209830000011539661293018303882_);enable-background:new    ;">
					<path class="st32" d="M4962.3,2671.1l-9.3-6.3c0,0,0-0.5,0-1.7l9.3,9.3C4962.3,2672.4,4962.3,2672,4962.3,2671.1"/>
				</g>
			</g>
			<g class="st4">
				<defs>
					<path id="SVGID_00000006709983052472368210000010835062001319233178_" class="st4" d="M4461,3668.3h21.9
						c2,66.8,51.3,101.1,101,101.9c51.1,0,99.8-32.7,102.9-99.4l21.9,1c-3.6,80.1-63.6,120.4-125,120.3
						C4523.7,3791.3,4463.3,3749.3,4461,3668.3z"/>
				</defs>
				<clipPath id="SVGID_00000004533487407547737820000005470646338855611031_">
					<use xlink:href="#SVGID_00000006709983052472368210000010835062001319233178_"  style="overflow:visible;"/>
				</clipPath>
				<g style="clip-path:url(#SVGID_00000004533487407547737820000005470646338855611031_);enable-background:new    ;">
					<path class="st44" d="M4461,3668.3h21.9c0,1,0.1,1.9,0.1,2.8l-21.9,0.6C4461.1,3670.6,4461.1,3669.5,4461,3668.3"/>
					<path class="st54" d="M4461.2,3671.8l21.9-0.6c0.2,3,0.4,5.9,0.7,8.8l-21.7,2.5C4461.6,3679,4461.3,3675.4,4461.2,3671.8"/>
					<path class="st50" d="M4462,3682.4l21.7-2.5c0.3,2.9,0.8,5.8,1.3,8.5l-21.5,4.3C4463,3689.4,4462.5,3686,4462,3682.4"/>
					<path class="st14" d="M4463.6,3692.8l21.5-4.3c0.6,2.9,1.2,5.8,2,8.6l-21,6.1C4465.1,3699.8,4464.3,3696.3,4463.6,3692.8"/>
					<path class="st49" d="M4466,3703.2l21-6.1c0.9,3.1,1.8,6.2,2.9,9.1l-20.4,8C4468.3,3710.7,4467.1,3707,4466,3703.2"/>
					<path class="st48" d="M4469.6,3714.2l20.4-8c8.1,21.6,22.3,37.8,39.6,48.5l-11.7,18.5
						C4496.8,3760.2,4479.4,3740.5,4469.6,3714.2"/>
					<path class="st49" d="M4517.9,3773.2l11.7-18.5c2.4,1.5,4.8,2.8,7.3,4.1l-10.2,19.4C4523.8,3776.7,4520.8,3775,4517.9,3773.2"
						/>
					<path class="st14" d="M4526.8,3778.2l10.2-19.4c2.2,1.1,4.4,2.1,6.6,3.1l-8.7,20.1C4532.1,3780.8,4529.5,3779.6,4526.8,3778.2"
						/>
					<path class="st50" d="M4534.9,3782l8.7-20.1c2,0.9,4.1,1.7,6.2,2.4l-7.4,20.6C4539.9,3784,4537.4,3783,4534.9,3782"/>
					<path class="st54" d="M4542.4,3784.9l7.4-20.6c1.9,0.7,3.9,1.3,5.8,1.8l-6.1,21C4547.1,3786.5,4544.7,3785.7,4542.4,3784.9"/>
					<path class="st44" d="M4549.5,3787.2l6.1-21c1.8,0.5,3.6,1,5.5,1.4l-5,21.3C4553.9,3788.4,4551.7,3787.8,4549.5,3787.2"/>
					<path class="st53" d="M4556.1,3788.9l5-21.3c1.7,0.4,3.4,0.7,5.2,1.1l-3.9,21.6C4560.3,3789.8,4558.2,3789.3,4556.1,3788.9"/>
					<path class="st52" d="M4562.4,3790.1l3.9-21.6c1.7,0.3,3.4,0.6,5,0.8l-2.8,21.7C4566.5,3790.8,4564.5,3790.5,4562.4,3790.1"/>
					<path class="st23" d="M4568.5,3791.1l2.8-21.7c1.6,0.2,3.3,0.4,4.9,0.5l-1.8,21.8C4572.5,3791.6,4570.5,3791.4,4568.5,3791.1"
						/>
					<path class="st28" d="M4574.5,3791.7l1.8-21.8c1.3,0.1,2.6,0.2,4,0.3l-0.9,21.9C4577.7,3792,4576.1,3791.9,4574.5,3791.7"/>
					<path class="st29" d="M4579.3,3792.1l0.9-21.9c1.2,0.1,2.4,0.1,3.6,0.1c0.1,0,0.3,0,0.4,0l-0.1,21.9c-0.2,0-0.3,0-0.5,0
						C4582.2,3792.2,4580.8,3792.1,4579.3,3792.1"/>
					<path class="st30" d="M4584.2,3792.2l0.1-21.9c1.7,0,3.3,0,4.9-0.1l0.9,21.9C4588.1,3792.1,4586.2,3792.2,4584.2,3792.2"/>
					<path class="st16" d="M4590.1,3792.1l-0.9-21.9c1.6-0.1,3.3-0.2,4.9-0.3l1.9,21.8C4594.1,3791.8,4592.1,3792,4590.1,3792.1"/>
					<path class="st31" d="M4596,3791.7l-1.9-21.8c1.6-0.1,3.2-0.3,4.8-0.5l2.9,21.7C4599.9,3791.3,4598,3791.5,4596,3791.7"/>
					<path class="st32" d="M4601.8,3791l-2.9-21.7c1.6-0.2,3.2-0.4,4.8-0.7l3.9,21.6C4605.7,3790.5,4603.8,3790.8,4601.8,3791"/>
					<path class="st33" d="M4607.6,3790.2l-3.9-21.6c1.6-0.3,3.2-0.6,4.8-0.9l4.9,21.4C4611.5,3789.5,4609.5,3789.8,4607.6,3790.2"
						/>
					<path class="st34" d="M4613.4,3789l-4.9-21.4c1.6-0.3,3.2-0.7,4.7-1.1l5.9,21.1C4617.2,3788.2,4615.3,3788.6,4613.4,3789"/>
					<path class="st35" d="M4619.1,3787.7l-5.9-21.1c1.6-0.4,3.2-0.9,4.8-1.4l6.9,20.8C4623,3786.6,4621,3787.1,4619.1,3787.7"/>
					<path class="st36" d="M4624.9,3786l-6.9-20.8c1.6-0.5,3.2-1.1,4.8-1.6l7.9,20.5C4628.8,3784.7,4626.8,3785.4,4624.9,3786"/>
					<path class="st18" d="M4630.7,3784l-7.9-20.5c1.6-0.6,3.3-1.2,4.9-1.9l9,20C4634.7,3782.5,4632.7,3783.2,4630.7,3784"/>
					<path class="st37" d="M4636.6,3781.6l-9-20c1.7-0.7,3.4-1.5,5.1-2.4l10.1,19.5C4640.8,3779.8,4638.7,3780.7,4636.6,3781.6"/>
					<path class="st39" d="M4642.9,3778.8l-10.1-19.5c1.8-0.9,3.6-1.9,5.4-2.9l11.3,18.9C4647.3,3776.5,4645.1,3777.7,4642.9,3778.8
						"/>
					<path class="st40" d="M4649.4,3775.3l-11.3-18.9c2-1.1,4-2.4,5.9-3.6l12.5,18.1C4654.2,3772.4,4651.8,3773.9,4649.4,3775.3"/>
					<path class="st41" d="M4656.6,3770.8l-12.5-18.1c2.4-1.6,4.7-3.3,7-5.2l14.1,17C4662.3,3766.8,4659.5,3768.9,4656.6,3770.8"/>
					<path class="st12" d="M4665,3764.5l-14.1-17c20.2-16.5,34.2-42,35.8-76.7l21.9,1C4706.8,3713.6,4689.7,3744.5,4665,3764.5"/>
				</g>
			</g>
			<g class="st4">
				<defs>
					<path id="SVGID_00000104706703692318528050000015183570093330772373_" class="st4" d="M4222.8,3495.4l-21.7-21.9
						c46.9,0,93.9,0,140.8,0c47.1,0,94.1,0,141,0l-21.9,21.9c-25,0-71.9,0-119.1,0C4295,3495.4,4248.1,3495.4,4222.8,3495.4z"/>
				</defs>
				<clipPath id="SVGID_00000023990643323736600880000005501167520001106059_">
					<use xlink:href="#SVGID_00000104706703692318528050000015183570093330772373_"  style="overflow:visible;"/>
				</clipPath>
				<g style="clip-path:url(#SVGID_00000023990643323736600880000005501167520001106059_);enable-background:new    ;">
					<path class="st29" d="M4222.8,3495.4l-21.7-21.9c46.9,0,93.9,0,140.8,0c47.1,0,94.1,0,141,0l-21.9,21.9c-25,0-71.9,0-119.1,0
						C4295,3495.4,4248.1,3495.4,4222.8,3495.4"/>
				</g>
			</g>
			<g class="st4">
				<defs>
					<path id="SVGID_00000099621503571642614620000004235888227025477767_" class="st4" d="M4461,3495.4l21.9-21.9
						c0,32.5,0,64.9,0,97.4c0,32.5,0,64.9,0,97.4H4461c0-32.5,0-64.9,0-97.4C4461,3538.4,4461,3506.1,4461,3495.4z"/>
				</defs>
				<clipPath id="SVGID_00000112597828209867666810000012226342835892575625_">
					<use xlink:href="#SVGID_00000099621503571642614620000004235888227025477767_"  style="overflow:visible;"/>
				</clipPath>
				<g style="clip-path:url(#SVGID_00000112597828209867666810000012226342835892575625_);enable-background:new    ;">
					<path class="st44" d="M4461,3495.4l21.9-21.9c0,32.5,0,64.9,0,97.4c0,32.5,0,64.9,0,97.4H4461c0-32.5,0-64.9,0-97.4
						C4461,3538.4,4461,3506.1,4461,3495.4"/>
				</g>
			</g>
			<g class="st4">
				<defs>
					<path id="SVGID_00000076588930837825460760000001518878892896144272_" class="st4" d="M4708.7,3671.9l-21.9-1
						c0.4-22.1,1-60.5,1.4-94.6c0.6-32.3,1-31.2,1-69.2c0.2-38.1-0.8-77.9-0.8-80.2h21.9c0,2,1,42,0.8,80.3c0,38.5-0.4,37.3-1,69.5
						C4709.7,3610.7,4709.1,3649.2,4708.7,3671.9z"/>
				</defs>
				<clipPath id="SVGID_00000070095562673548001860000007215638141923797165_">
					<use xlink:href="#SVGID_00000076588930837825460760000001518878892896144272_"  style="overflow:visible;"/>
				</clipPath>
				<g style="clip-path:url(#SVGID_00000070095562673548001860000007215638141923797165_);enable-background:new    ;">
					<path class="st12" d="M4708.7,3671.9l-21.9-1c0.4-22.1,1-60.5,1.4-94.6c0.6-32.3,1-31.2,1-69.2c0.2-38.1-0.8-77.9-0.8-80.2
						h21.9c0,2,1,42,0.8,80.3c0,38.5-0.4,37.3-1,69.5C4709.7,3610.7,4709.1,3649.2,4708.7,3671.9"/>
				</g>
			</g>
			<g class="st4">
				<defs>
					<path id="SVGID_00000101065052404182385750000017746679974644690585_" class="st4" d="M4953,2663.1l21.9,21.9
						c-47.3,0-94.6,0-142.2,0c-47.3,0-94.6,0-142,0l21.9-21.9c25.4,0,72.7,0,120.1,0C4880.2,2663.1,4927.6,2663.1,4953,2663.1z"/>
				</defs>
				<clipPath id="SVGID_00000017509510268417278580000010841251081070167190_">
					<use xlink:href="#SVGID_00000101065052404182385750000017746679974644690585_"  style="overflow:visible;"/>
				</clipPath>
				<g style="clip-path:url(#SVGID_00000017509510268417278580000010841251081070167190_);enable-background:new    ;">
					<path class="st37" d="M4953,2663.1l21.9,21.9c-47.3,0-94.6,0-142.2,0c-47.3,0-94.6,0-142,0l21.9-21.9c25.4,0,72.7,0,120.1,0
						C4880.2,2663.1,4927.6,2663.1,4953,2663.1"/>
				</g>
			</g>
			<g class="st4">
				<defs>
					<path id="SVGID_00000145053499243885462290000012260136798881783468_" class="st4" d="M4712.7,2663.1l-21.9,21.9
						c0-24.6,0-49.1,0-73.5c0-24.6,0-49.1,0-73.7h22c-0.1,24.6-0.1,49.1-0.1,73.7C4712.7,2635.9,4712.7,2660.4,4712.7,2663.1z"/>
				</defs>
				<clipPath id="SVGID_00000061458587602554249770000012314014081615318659_">
					<use xlink:href="#SVGID_00000145053499243885462290000012260136798881783468_"  style="overflow:visible;"/>
				</clipPath>
				<g style="clip-path:url(#SVGID_00000061458587602554249770000012314014081615318659_);enable-background:new    ;">
					<path class="st12" d="M4712.7,2663.1l-21.9,21.9c0-24.6,0-49.1,0-73.5c0-24.6,0-49.1,0-73.7h22c-0.1,24.6-0.1,49.1-0.1,73.7
						C4712.7,2635.9,4712.7,2660.4,4712.7,2663.1"/>
				</g>
			</g>
			<g class="st4">
				<defs>
					<path id="SVGID_00000168091414839264384440000012038883040574088065_" class="st4" d="M4962.3,2672.4c-2.4-2.3-4.7-4.5-9.3-7.6
						c0,0,0-27.7,0-55.3c0-31.5,0-62.9,0.1-72.6l21.8-2.9c0,12.6,0,44,0,75.5c0,31.4,0,62.9,0,75.5
						C4974.9,2685,4962.3,2672.4,4962.3,2672.4z"/>
				</defs>
				<clipPath id="SVGID_00000072271611339568000480000016397473378013297557_">
					<use xlink:href="#SVGID_00000168091414839264384440000012038883040574088065_"  style="overflow:visible;"/>
				</clipPath>
				<g style="clip-path:url(#SVGID_00000072271611339568000480000016397473378013297557_);enable-background:new    ;">
					<path class="st44" d="M4953.1,2537l21.8-2.9c0,12.6,0,44,0,75.5c0,31.4,0,62.9,0,75.5l-21.9-21.9c0,9.3,0-22.3,0-53.6
						C4953,2578,4953,2546.6,4953.1,2537"/>
				</g>
			</g>
			<g class="st4">
				<defs>
					<path id="SVGID_00000041277924864182100600000016100594030544904347_" class="st4" d="M4471.2,2533.5l21.6,4.3
						c0,15.2,0,40,0,61.5c0,36.9,0,38.8,0,41.8c0,2.5,0.2,49.9,7.9,107.3c10.3,75.9,129.7,170.2,235,266.6
						c116.9,106.9,175.3,160.3,207.4,230.9c31.9,69.8,34.5,133.9,39.6,262.4c5.5,141.8,8.3,247.6-52.4,356.7
						c-13.8,24.8-42,74.3-98.2,118.9c-68,53.6-151.4,80.1-235.5,80.1c-144.7-0.4-289.8-78.1-360.8-229.5
						c-47.9-102.3-37.5-126-34.7-360.8l21.7,21.9c-2.5,211.3-12.2,233.5,32.9,329.6c67.1,143.1,204.1,216.5,341,216.9
						c79.4,0,158-24.9,221.9-75.3c52.8-41.8,79.4-88.5,92.6-112.4c57.6-103.2,55.1-205.1,49.7-345.2
						c-5.1-127.4-7.7-188.9-37.7-254.2c-29.9-65.9-86.1-117.6-202.3-223.8c-105.4-96.5-229.4-193.2-242-279.8
						c-7.9-58.8-8.2-107.3-8.1-110.1c0-3,0-5,0-41.8C4470.9,2577.8,4470.9,2552.9,4471.2,2533.5z"/>
				</defs>
				<clipPath id="SVGID_00000103258738151726434180000017582052243882858120_">
					<use xlink:href="#SVGID_00000041277924864182100600000016100594030544904347_"  style="overflow:visible;"/>
				</clipPath>
				<g style="clip-path:url(#SVGID_00000103258738151726434180000017582052243882858120_);enable-background:new    ;">
					<path class="st44" d="M4471.2,2533.5l21.6,4.3c0,15.2,0,40,0,61.5c0,36.9,0,38.8,0,41.8c0,1.2,0,12.3,0.9,29.8l-21.9,1
						c-0.9-17.9-0.9-29.4-0.9-30.8c0-3,0-5,0-41.8C4470.9,2577.8,4470.9,2552.9,4471.2,2533.5"/>
					<path class="st54" d="M4471.8,2671.9l21.9-1c0.8,16.6,2.3,38.9,5.3,63.7l-21.8,2.6C4474.2,2711.7,4472.6,2688.9,4471.8,2671.9"
						/>
					<path class="st50" d="M4477.2,2737.2l21.8-2.6c0.5,4.5,1.1,9.1,1.7,13.7c0.2,1.7,0.5,3.5,0.9,5.2l-21.6,3.6c-0.4-2-0.7-4-1-6
						C4478.3,2746.5,4477.7,2741.8,4477.2,2737.2"/>
					<path class="st14" d="M4480,2757.2l21.6-3.6c0.5,2.4,1,4.8,1.7,7.2l-21.3,4.6C4481.2,2762.6,4480.5,2759.9,4480,2757.2"/>
					<path class="st49" d="M4481.9,2765.3l21.3-4.6c0.9,3.4,2.1,6.8,3.4,10.3l-21,5.8C4484.2,2773,4483,2769.2,4481.9,2765.3"/>
					<path class="st48" d="M4485.7,2776.9l21-5.8c27.4,71.6,134,156.9,229,243.9c116.9,106.9,175.3,160.3,207.4,230.9
						c3.5,7.7,6.7,15.2,9.5,22.8l-20.5,7.7c-2.7-7.2-5.6-14.3-8.9-21.4c-29.9-65.9-86.1-117.6-202.3-223.8
						C4625.8,2944,4515.5,2856.7,4485.7,2776.9"/>
					<path class="st49" d="M4932.1,3276.3l20.5-7.7c3.5,9.3,6.5,18.7,9.1,28.3l-21,6.2C4938.2,3294,4935.4,3285.1,4932.1,3276.3"/>
					<path class="st14" d="M4940.7,3303.1l21-6.2c2.5,9.3,4.7,18.7,6.6,28.5l-21.4,4.9C4945.1,3320.9,4943.1,3311.9,4940.7,3303.1"
						/>
					<path class="st50" d="M4946.9,3330.3l21.4-4.9c2.2,11.6,4,23.7,5.5,36.6l-21.7,3.5C4950.8,3353.1,4949,3341.4,4946.9,3330.3"/>
					<path class="st54" d="M4952.2,3365.5l21.7-3.5c2.8,24,4.6,50.6,6.1,81.5l-21.9,1.7C4956.6,3414.8,4954.9,3388.8,4952.2,3365.5"
						/>
					<path class="st44" d="M4958.1,3445.2l21.9-1.7c1,19.7,1.8,41.1,2.8,64.7c1.7,44,3.2,84.6,2.5,122.9l-21.9-1.4
						c0.6-37.3-0.8-77.1-2.5-120.7C4959.9,3485.7,4959.1,3464.6,4958.1,3445.2"/>
					<path class="st53" d="M4963.4,3629.8l21.9,1.4c-0.3,17.9-1.1,35.3-2.5,52.4l-21.8-2.8
						C4962.4,3664.2,4963.1,3647.2,4963.4,3629.8"/>
					<path class="st52" d="M4961,3680.7l21.8,2.8c-1,12.5-2.4,24.9-4.2,37.1l-21.6-4.1C4958.8,3704.7,4960.1,3692.8,4961,3680.7"/>
					<path class="st23" d="M4957,3716.5l21.6,4.1c-1.6,10.5-3.4,20.8-5.6,31.1l-21.3-5.3C4953.8,3736.5,4955.6,3726.6,4957,3716.5"
						/>
					<path class="st28" d="M4951.7,3746.4l21.3,5.3c-2.1,9.5-4.4,19-7.2,28.4l-20.9-6.5C4947.4,3764.6,4949.7,3755.5,4951.7,3746.4"
						/>
					<path class="st29" d="M4944.9,3773.6l20.9,6.5c-2.7,9.4-5.8,18.8-9.3,28.1l-20.5-7.8
						C4939.3,3791.5,4942.3,3782.6,4944.9,3773.6"/>
					<path class="st30" d="M4936.1,3800.4l20.5,7.8c-3.7,10-7.9,20-12.5,29.9l-19.8-9.3C4928.6,3819.4,4932.5,3809.9,4936.1,3800.4"
						/>
					<path class="st16" d="M4924.2,3828.9l19.8,9.3c-4.2,8.9-8.7,17.9-13.7,26.8c-2.2,4-4.8,8.6-7.9,13.8l-18.8-11.3
						c2.9-4.9,5.4-9.4,7.5-13.2C4915.9,3845.8,4920.2,3837.3,4924.2,3828.9"/>
					<path class="st31" d="M4903.7,3867.5l18.8,11.3c-7,11.9-16.2,26.5-28.5,42.4l-17.3-13.5
						C4888.3,3892.7,4897,3878.8,4903.7,3867.5"/>
					<path class="st32" d="M4876.7,3907.6l17.3,13.5c-15,19.5-34.6,40.8-59.9,61.2l-13.7-17.1
						C4844.1,3946.1,4862.5,3926,4876.7,3907.6"/>
					<path class="st33" d="M4820.3,3965.2l13.7,17.1c-0.6,0.5-1.3,1-1.9,1.5c-15.6,12.3-32,23.2-49,32.6l-10.7-19.1
						c16-8.9,31.5-19.1,46.1-30.7C4819.1,3966.2,4819.7,3965.7,4820.3,3965.2"/>
					<path class="st34" d="M4772.4,3997.3l10.7,19.1c-14.3,7.9-29,14.9-44.1,20.8l-8.1-20.4
						C4745.1,4011.3,4759,4004.8,4772.4,3997.3"/>
					<path class="st35" d="M4730.9,4016.9l8.1,20.4c-13.7,5.4-27.7,10-41.9,13.7l-5.7-21.2C4704.8,4026.2,4718,4021.9,4730.9,4016.9
						"/>
					<path class="st36" d="M4691.4,4029.8l5.7,21.2c-13.7,3.6-27.5,6.5-41.5,8.6l-3.3-21.7
						C4665.4,4035.9,4678.5,4033.2,4691.4,4029.8"/>
					<path class="st18" d="M4652.2,4037.8l3.3,21.7c-14,2.1-28.1,3.4-42.3,4l-0.9-21.9C4625.7,4041.1,4639,4039.8,4652.2,4037.8"/>
					<path class="st37" d="M4612.3,4041.6l0.9,21.9c-5.5,0.2-11,0.3-16.6,0.3c-8.9,0-17.7-0.3-26.6-0.9l1.5-21.9
						c8.4,0.6,16.7,0.9,25.1,0.9C4601.9,4042,4607.1,4041.9,4612.3,4041.6"/>
					<path class="st39" d="M4571.6,4041.1l-1.5,21.9c-15.7-1.1-31.4-3.1-47-6l4-21.5C4541.8,4038.2,4556.7,4040.1,4571.6,4041.1"/>
					<path class="st40" d="M4527.1,4035.4l-4,21.5c-17.3-3.2-34.4-7.6-51.2-13l6.8-20.8C4494.7,4028.3,4510.8,4032.4,4527.1,4035.4"
						/>
					<path class="st41" d="M4478.8,4023.1l-6.8,20.8c-20.6-6.7-40.7-15.1-60.1-25.1l10.1-19.4
						C4440.4,4008.9,4459.3,4016.8,4478.8,4023.1"/>
					<path class="st12" d="M4422,3999.4l-10.1,19.4c-73.2-37.9-136.2-99.6-176-184.5c-47.9-102.3-37.5-126-34.7-360.8l21.7,21.9
						c-2.5,211.3-12.2,233.5,32.9,329.6C4293.3,3905.3,4352.9,3963.6,4422,3999.4"/>
				</g>
			</g>
			<g class="st4">
				<defs>
					<path id="SVGID_00000068645371997819837490000011679286902153129895_" class="st4" d="M4712.8,2537.8h-22
						c-10.8-55.8-54.5-83.6-98.3-83.6c-44.4,0.2-88.6,28.2-99.6,83.6l-21.6-4.3c13.3-66.7,67.4-101,121.2-101.2
						C4645.8,2432.2,4699.4,2466.4,4712.8,2537.8z"/>
				</defs>
				<clipPath id="SVGID_00000165206893430804923690000008180855312286311069_">
					<use xlink:href="#SVGID_00000068645371997819837490000011679286902153129895_"  style="overflow:visible;"/>
				</clipPath>
				<g style="clip-path:url(#SVGID_00000165206893430804923690000008180855312286311069_);enable-background:new    ;">
					<path class="st12" d="M4712.8,2537.8h-22c-6.9-35.6-27.2-59.8-52.3-72.7l10.1-19.3C4679.3,2461.8,4704.2,2492.2,4712.8,2537.8"
						/>
					<path class="st41" d="M4648.5,2445.8l-10.1,19.3c-4.7-2.4-9.6-4.4-14.6-6l6.8-20.8C4636.8,2440.3,4642.8,2442.8,4648.5,2445.8"
						/>
					<path class="st40" d="M4630.6,2438.3l-6.8,20.8c-4.1-1.3-8.4-2.4-12.6-3.2l4.1-21.5C4620.4,2435.3,4625.6,2436.6,4630.6,2438.3
						"/>
					<path class="st39" d="M4615.2,2434.4l-4.1,21.5c-3.9-0.7-7.8-1.2-11.7-1.5l1.5-21.9C4605.7,2432.9,4610.5,2433.5,4615.2,2434.4
						"/>
					<path class="st37" d="M4600.9,2432.5l-1.5,21.9c-2.3-0.2-4.7-0.2-7-0.2c-1.3,0-2.6,0-4,0.1l-0.9-21.9c1.6-0.1,3.2-0.1,4.8-0.1
						C4595.2,2432.2,4598.1,2432.3,4600.9,2432.5"/>
					<path class="st18" d="M4587.6,2432.4l0.9,21.9c-3.8,0.2-7.6,0.5-11.3,1.1l-3.3-21.7C4578.4,2433,4583,2432.5,4587.6,2432.4"/>
					<path class="st36" d="M4573.9,2433.7l3.3,21.7c-3.8,0.6-7.5,1.3-11.2,2.3l-5.7-21.2C4564.8,2435.3,4569.3,2434.3,4573.9,2433.7
						"/>
					<path class="st35" d="M4560.3,2436.5l5.7,21.2c-3.9,1-7.7,2.3-11.4,3.7l-8.2-20.3C4551,2439.2,4555.6,2437.7,4560.3,2436.5"/>
					<path class="st34" d="M4546.5,2441l8.2,20.3c-4.1,1.6-8.1,3.5-12,5.6l-10.8-19.1C4536.6,2445.2,4541.5,2443,4546.5,2441"/>
					<path class="st33" d="M4531.9,2447.8l10.8,19.1c-4.8,2.7-9.5,5.8-13.8,9.3l-13.8-17.1C4520.4,2454.9,4526,2451.1,4531.9,2447.8
						"/>
					<path class="st32" d="M4515.1,2459.1l13.8,17.1c-5.7,4.6-11,9.9-15.8,16l-17.2-13.7C4501.6,2471.2,4508.1,2464.7,4515.1,2459.1
						"/>
					<path class="st31" d="M4495.9,2478.5l17.2,13.7c-2.6,3.3-5,6.8-7.2,10.6l-18.8-11.5C4489.8,2486.8,4492.7,2482.5,4495.9,2478.5
						"/>
					<path class="st16" d="M4487.1,2491.3l18.8,11.5c-1.6,2.8-3.2,5.7-4.6,8.7l-19.8-9.7C4483.2,2498.2,4485.1,2494.7,4487.1,2491.3
						"/>
					<path class="st30" d="M4481.5,2501.8l19.8,9.7c-1.2,2.6-2.4,5.3-3.4,8.1l-20.5-8C4478.6,2508.3,4480,2505,4481.5,2501.8"/>
					<path class="st29" d="M4477.4,2511.7l20.5,8c-1,2.6-1.8,5.2-2.6,8l-21.1-6.4C4475.1,2518,4476.2,2514.8,4477.4,2511.7"/>
					<path class="st28" d="M4474.2,2521.3l21.1,6.4c-0.8,2.6-1.4,5.3-2,8l-21.5-4.7C4472.4,2527.7,4473.3,2524.4,4474.2,2521.3"/>
					<path class="st23" d="M4471.7,2531l21.5,4.7c-0.1,0.7-0.3,1.4-0.4,2.1l-21.6-4.3C4471.4,2532.6,4471.5,2531.8,4471.7,2531"/>
				</g>
			</g>
			<g class="st4">
				<defs>
					<path id="SVGID_00000083071611106584665130000012006208012245426077_" class="st4" d="M4710.3,3426.8h-21.9
						c-2-64.5-151.6-185.5-176.1-205.7c-111.8-91.5-199.3-163.1-251.8-271.5c-35.9-74.3-41-137.2-51.1-263.2
						c-9.5-119.1-16.2-219.7,39.6-322.6c32.9-60.9,73.5-96.2,82.2-103.7c84.2-71.5,183.5-83.8,243.6-83.8v21.9
						c-57,0-150.7,11.7-229.3,78.6c-6.8,6.9-46.1,40-77.2,97.5c-52.6,96.8-46.4,193-37.1,310.4c10,124.8,15,185.2,49,255.4
						c50,103.6,135,173.3,246,264.1C4551.3,3224.5,4706.6,3348.7,4710.3,3426.8z"/>
				</defs>
				<clipPath id="SVGID_00000110447227968836516200000014143498724122808711_">
					<use xlink:href="#SVGID_00000083071611106584665130000012006208012245426077_"  style="overflow:visible;"/>
				</clipPath>
				<g style="clip-path:url(#SVGID_00000110447227968836516200000014143498724122808711_);enable-background:new    ;">
					<path class="st12" d="M4710.3,3426.8h-21.9c-2-64.5-151.6-185.5-176.1-205.7c-111.8-91.5-199.3-163.1-251.8-271.5
						c-35.9-74.3-41-137.2-51.1-263.2c-9.5-119.1-16.2-219.7,39.6-322.6c32.9-60.9,73.5-96.2,82.2-103.7c2.9-2.5,5.9-4.9,8.8-7.2
						l13.7,17.1c-2.8,2.2-5.5,4.4-8.2,6.8c-6.8,6.9-46.1,40-77.2,97.5c-52.6,96.8-46.4,193-37.1,310.4c10,124.8,15,185.2,49,255.4
						c50,103.6,135,173.3,246,264.1C4551.3,3224.5,4706.6,3348.7,4710.3,3426.8"/>
					<path class="st41" d="M4353.8,2270l-13.7-17.1c7-5.6,14.1-10.7,21.3-15.5l12.3,18.1C4367,2260,4360.4,2264.8,4353.8,2270"/>
					<path class="st40" d="M4373.7,2255.5l-12.3-18.1c6.7-4.5,13.4-8.6,20.1-12.5l11,18.9C4386.3,2247.4,4380,2251.3,4373.7,2255.5"
						/>
					<path class="st39" d="M4392.6,2243.8l-11-18.9c6.1-3.5,12.1-6.7,18.2-9.7l9.9,19.5C4404,2237.6,4398.3,2240.6,4392.6,2243.8"/>
					<path class="st37" d="M4409.7,2234.7l-9.9-19.5c5.8-2.9,11.5-5.5,17.3-8l8.9,20C4420.5,2229.6,4415.1,2232.1,4409.7,2234.7"/>
					<path class="st18" d="M4425.9,2227.3l-8.9-20c5.6-2.4,11.3-4.6,16.9-6.7l7.8,20.5C4436.5,2222.9,4431.2,2225,4425.9,2227.3"/>
					<path class="st36" d="M4441.8,2221l-7.8-20.5c5.6-2.1,11.2-4,16.7-5.7l6.9,20.8C4452.3,2217.3,4447.1,2219.1,4441.8,2221"/>
					<path class="st35" d="M4457.5,2215.7l-6.9-20.8c5.6-1.8,11.2-3.4,16.7-4.9l5.9,21.1C4468.1,2212.5,4462.8,2214,4457.5,2215.7"
						/>
					<path class="st34" d="M4473.3,2211.1l-5.9-21.1c5.7-1.5,11.3-2.9,16.9-4.1l4.9,21.4C4483.9,2208.4,4478.6,2209.7,4473.3,2211.1
						"/>
					<path class="st33" d="M4489.2,2207.3l-4.9-21.4c5.8-1.3,11.6-2.4,17.2-3.4l3.9,21.6C4500.1,2205,4494.7,2206.1,4489.2,2207.3"
						/>
					<path class="st32" d="M4505.4,2204.1l-3.9-21.6c6-1,11.9-1.9,17.6-2.7l3,21.7C4516.6,2202.3,4511.1,2203.1,4505.4,2204.1"/>
					<path class="st31" d="M4522,2201.6l-3-21.7c6.2-0.8,12.2-1.4,18-1.9l2,21.8C4533.5,2200.2,4527.9,2200.8,4522,2201.6"/>
					<path class="st16" d="M4539.1,2199.8l-2-21.8c6.3-0.5,12.5-0.9,18.3-1.2l1,21.9C4550.9,2198.9,4545.1,2199.3,4539.1,2199.8"/>
					<path class="st30" d="M4556.4,2198.6l-1-21.9c6.6-0.3,12.8-0.4,18.7-0.4l0,21.9C4568.5,2198.2,4562.6,2198.4,4556.4,2198.6"/>
					<path class="st29" d="M4574.1,2198.2l0-21.9c0.3,0,0.5,0,0.8,0v21.9C4574.6,2198.2,4574.4,2198.2,4574.1,2198.2"/>
				</g>
			</g>
			<g>
				<path class="st15" d="M4574.9,2198.2c15.5,0,28.2,0.9,37.2,1.7c34.3,3.2,146.7,18.1,237.8,113.4
					c52.3,54.7,90.6,129.1,103.3,223.6c-0.1,9.7-0.1,41-0.1,72.6c0,31.4,0,62.9,0,53.6c-25.4,0-72.7,0-120.3,0
					c-47.3,0-94.6,0-120.1,0c0-2.7,0-27.2,0-51.6c0-24.6,0-49.1,0.1-73.7c-13.4-71.4-67-105.5-120.4-105.5
					c-53.8,0.2-107.9,34.5-121.2,101.2c-0.3,19.5-0.3,44.3-0.3,65.8c0,36.9,0,38.8,0,41.8c-0.1,2.8,0.2,51.4,8.1,110.1
					c12.5,86.6,136.6,183.3,242,279.8c116.2,106.2,172.4,157.9,202.3,223.8c30,65.4,32.6,126.8,37.7,254.2
					c5.4,140.1,7.9,241.9-49.7,345.2c-13.3,23.9-39.9,70.5-92.6,112.4c-63.9,50.4-142.5,75.3-221.9,75.3
					c-136.8-0.4-273.9-73.8-341-216.9c-45.1-96.1-35.4-118.3-32.9-329.6c25.3,0,72.2,0,119.1,0c47.1,0,94.1,0,119.1,0
					c0,10.6,0,43,0,75.5c0,32.5,0,64.9,0,97.4c2.3,81,62.6,123,122.7,123.8c61.4,0.1,121.4-40.2,125-120.3c0.4-22.7,1-61.3,1.4-95.3
					c0.6-32.2,1-31,1-69.5c0.2-38.3-0.7-78.3-0.8-80.3c-3.7-78.1-159-202.3-184.1-222.6c-110.9-90.8-195.9-160.5-246-264.1
					c-34-70.2-39-130.6-49-255.4c-9.3-117.4-15.5-213.6,37.1-310.4c31.1-57.5,70.4-90.6,77.2-97.5
					C4424.2,2209.9,4517.8,2198.2,4574.9,2198.2z"/>
			</g>
			<g class="st4">
				<defs>
					<path id="SVGID_00000121986426602647989140000013433957334776325264_" class="st4" d="M4574.9,2198.2v-21.9
						c16.3,0,29.8,0.9,39.2,1.8c36.3,3.4,155,19.1,251.6,120.1c55.4,58,95.8,136.6,109.2,235.8l-21.8,2.9
						c-12.7-94.5-51-168.9-103.3-223.6c-91.1-95.3-203.5-110.2-237.8-113.4C4603.1,2199.1,4590.4,2198.2,4574.9,2198.2z"/>
				</defs>
				<clipPath id="SVGID_00000003098742850024148500000004363829109996908731_">
					<use xlink:href="#SVGID_00000121986426602647989140000013433957334776325264_"  style="overflow:visible;"/>
				</clipPath>
				<g style="clip-path:url(#SVGID_00000003098742850024148500000004363829109996908731_);enable-background:new    ;">
					<path class="st29" d="M4574.9,2198.2v-21.9c6.4,0,12.3,0.1,17.8,0.4l-0.9,21.9C4586.6,2198.4,4580.9,2198.2,4574.9,2198.2"/>
					<path class="st28" d="M4591.7,2198.6l0.9-21.9c6.8,0.3,12.9,0.7,18,1.1l-1.8,21.8C4603.9,2199.2,4598.2,2198.8,4591.7,2198.6"
						/>
					<path class="st23" d="M4608.8,2199.6l1.8-21.8c1.2,0.1,2.4,0.2,3.5,0.3c3.9,0.4,8.8,0.9,14.5,1.6l-2.8,21.7
						c-5.4-0.7-10-1.2-13.7-1.5C4611,2199.8,4609.9,2199.7,4608.8,2199.6"/>
					<path class="st52" d="M4625.7,2201.5l2.8-21.7c5.4,0.7,11.6,1.6,18.4,2.8l-3.8,21.6C4636.7,2203,4630.9,2202.1,4625.7,2201.5"
						/>
					<path class="st53" d="M4643.1,2204.1l3.8-21.6c6.1,1.1,12.8,2.4,19.9,4l-4.9,21.4C4655.2,2206.4,4649,2205.2,4643.1,2204.1"/>
					<path class="st44" d="M4662,2208l4.9-21.4c6.7,1.5,13.8,3.3,21.2,5.5l-6,21.1C4675,2211.1,4668.3,2209.4,4662,2208"/>
					<path class="st54" d="M4682,2213.1l6-21.1c7.3,2.1,14.9,4.5,22.8,7.2l-7.3,20.7C4696.1,2217.3,4688.9,2215.1,4682,2213.1"/>
					<path class="st50" d="M4703.5,2219.9l7.3-20.7c7.9,2.7,16,5.9,24.3,9.4l-8.6,20.2C4718.7,2225.5,4711,2222.5,4703.5,2219.9"/>
					<path class="st14" d="M4726.6,2228.8l8.6-20.2c8.5,3.6,17.1,7.5,25.8,12l-10,19.5C4742.7,2235.9,4734.6,2232.1,4726.6,2228.8"
						/>
					<path class="st49" d="M4751,2240.1l10-19.5c9.4,4.8,19,10.1,28.6,16l-11.6,18.6C4769,2249.6,4759.9,2244.6,4751,2240.1"/>
					<path class="st48" d="M4778,2255.2l11.6-18.6c25.6,15.8,51.6,36,76.1,61.6c35.3,37,64.6,82.3,84.6,136.1l-20.5,7.8
						c-19-51-46.6-93.9-79.9-128.8C4826.7,2289.2,4802.2,2270.2,4778,2255.2"/>
					<path class="st49" d="M4929.7,2442.1l20.5-7.8c4.5,12.1,8.6,24.7,12.1,37.7l-21.1,5.9C4937.9,2465.5,4934,2453.6,4929.7,2442.1
						"/>
					<path class="st14" d="M4941.2,2477.9l21.1-5.9c3.2,11.6,5.9,23.5,8.2,35.7l-21.5,4.2
						C4946.8,2500.2,4944.2,2488.8,4941.2,2477.9"/>
					<path class="st50" d="M4949,2511.8l21.5-4.2c1.6,8.6,3.1,17.4,4.3,26.4l-21.8,2.9C4952,2528.4,4950.6,2520,4949,2511.8"/>
				</g>
			</g>
		</g>
	</g>
</g>
</svg>
